<?xml version="1.0" encoding="utf-8"?>
<svg viewBox="0 0 880 880" xmlns="http://www.w3.org/2000/svg">
  <g transform="matrix(3.118406, 0, 0, 3.119626, -1581.185791, -82.586174)" style="">
    <circle style="fill: rgb(161, 61, 99);" cx="679.33" cy="44.184" r="17.465" transform="matrix(0.709206, 0, 0, 0.747979, 174.859726, 10.796705)"/>
    <circle style="fill: rgb(161, 61, 99);" cx="679.33" cy="44.184" r="17.465" transform="matrix(0.709206, 0, 0, 0.747979, 211.309387, 19.906727)"/>
    <circle style="fill: rgb(161, 61, 99);" cx="679.33" cy="44.184" r="17.465" transform="matrix(0.709206, 0, 0, 0.747979, 242.797348, 38.190067)"/>
    <circle style="fill: rgb(161, 61, 99);" cx="679.33" cy="44.184" r="17.465" transform="matrix(0.709206, 0, 0, 0.747979, 267.852295, 65.276489)"/>
    <circle style="fill: rgb(161, 61, 99);" cx="679.33" cy="44.184" r="17.465" transform="matrix(0.709206, 0, 0, 0.747979, 284.104156, 99.134514)"/>
    <circle style="fill: rgb(161, 61, 99);" cx="679.33" cy="44.184" r="17.465" transform="matrix(0.709206, 0, 0, 0.747979, 289.521423, 134.346863)"/>
    <circle style="fill: rgb(161, 61, 99);" cx="679.33" cy="44.184" r="17.465" transform="matrix(0.709206, 0, 0, 0.747979, 284.104126, 171.590698)"/>
    <circle style="fill: rgb(161, 61, 99);" cx="679.33" cy="44.184" r="17.465" transform="matrix(0.709206, 0, 0, 0.747979, 268.529449, 204.771561)"/>
    <circle style="fill: rgb(161, 61, 99);" cx="679.33" cy="44.184" r="17.465" transform="matrix(0.709206, 0, 0, 0.747979, 242.797348, 231.180817)"/>
    <circle style="fill: rgb(161, 61, 99);" cx="679.33" cy="44.184" r="17.465" transform="matrix(0.709206, 0, 0, 0.747979, 210.97081, 250.141327)"/>
    <circle style="fill: rgb(161, 61, 99);" cx="679.33" cy="44.184" r="17.465" transform="matrix(0.709206, 0, 0, 0.747979, 175.081284, 258.267242)"/>
    <circle style="fill: rgb(161, 61, 99);" cx="679.33" cy="44.184" r="17.465" transform="matrix(0.709206, 0, 0, 0.747979, 138.514633, 255.558594)"/>
    <circle style="fill: rgb(161, 61, 99);" cx="679.33" cy="44.184" r="17.465" transform="matrix(0.709206, 0, 0, 0.747979, 103.979439, 242.015396)"/>
    <circle style="fill: rgb(161, 61, 99);" cx="679.33" cy="44.184" r="17.465" transform="matrix(0.709206, 0, 0, 0.747979, 74.861534, 219.669083)"/>
    <circle style="fill: rgb(161, 61, 99);" cx="679.33" cy="44.184" r="17.465" transform="matrix(0.709206, 0, 0, 0.747979, 53.86956, 189.196869)"/>
    <circle style="fill: rgb(161, 61, 99);" cx="679.33" cy="44.184" r="17.465" transform="matrix(0.709206, 0, 0, 0.747979, 42.35783, 153.307358)"/>
    <circle style="fill: rgb(161, 61, 99);" cx="679.33" cy="44.184" r="17.465" transform="matrix(0.709206, 0, 0, 0.747979, 42.357826, 116.740685)"/>
    <circle style="fill: rgb(161, 61, 99);" cx="679.33" cy="44.184" r="17.465" transform="matrix(0.709206, 0, 0, 0.747979, 54.546719, 80.851181)"/>
    <circle style="fill: rgb(161, 61, 99);" cx="679.33" cy="44.184" r="17.465" transform="matrix(0.709206, 0, 0, 0.747979, 74.18438, 51.056114)"/>
    <circle style="fill: rgb(161, 61, 99);" cx="679.33" cy="44.184" r="17.465" transform="matrix(0.709206, 0, 0, 0.747979, 103.979439, 27.355495)"/>
    <circle style="fill: rgb(161, 61, 99);" cx="679.33" cy="44.184" r="17.465" transform="matrix(0.709206, 0, 0, 0.747979, 138.514633, 15.166608)"/>
  </g>
</svg>