<svg id="Capa_1" enable-background="new 0 0 512.002 512.002" height="512" viewBox="0 0 512.002 512.002" width="512" xmlns="http://www.w3.org/2000/svg"><g><path d="m189.449 386.206c3.872-3.872 8.428-11.257 11.336-18.377 4.488-10.986 4.243-19.077-.729-24.049-10.95-10.952-36.25 4.431-42.427 10.606-8.648 8.647-8.693 23.125 0 31.818 8.606 8.607 23.211 8.703 31.82.002zm-21.214-21.213c4.38-4.381 15.95-9.891 20.765-10.159-.269 4.816-5.778 16.386-10.158 20.765v.001c-1.823 3.646-7.731 2.874-10.606-.001-2.885-2.884-2.885-7.721-.001-10.606zm44.974-173.788c5.443 10.887 23.166 8.656 31.82.001 8.67-8.671 8.612-23.209 0-31.82-3.872-3.871-11.257-8.427-18.376-11.336-10.986-4.489-19.077-4.243-24.05.729-4.972 4.973-5.218 13.064-.729 24.05 2.908 7.12 7.464 14.505 11.335 18.376zm21.213-21.213c2.878 2.877 2.886 7.721 0 10.607-2.883 2.883-8.787 3.636-10.605 0 0-.001 0-.001 0-.001-4.38-4.379-9.89-15.947-10.159-20.765 4.817.27 16.385 5.78 20.764 10.159zm-53.354 100.842c8.772-8.772 8.772-23.047 0-31.82-3.872-3.871-11.256-8.427-18.376-11.336-10.985-4.486-19.077-4.242-24.05.73-10.949 10.95 4.431 36.25 10.606 42.426v.001c8.774 8.772 23.047 8.772 31.82-.001zm-31.371-31.371c4.817.27 16.385 5.778 20.764 10.157 2.924 2.925 2.924 7.684 0 10.607-2.923 2.926-7.681 2.923-10.606.001-4.38-4.38-9.89-15.949-10.158-20.765zm197.071 108.278c-10.949 10.95 4.432 36.25 10.607 42.426v.001c4.386 4.386 10.148 6.579 15.91 6.579s11.523-2.193 15.91-6.58c4.25-4.25 6.59-9.899 6.59-15.909 0-6.011-2.341-11.66-6.59-15.909-6.174-6.177-31.473-21.558-42.427-10.608zm31.82 21.214c1.417 1.416 2.197 3.299 2.197 5.303 0 2.003-.78 3.887-2.197 5.303-2.924 2.924-7.682 2.923-10.606.001-4.38-4.381-9.89-15.949-10.159-20.766 4.817.268 16.385 5.778 20.765 10.159zm23.787-173.787c8.773 8.772 23.047 8.772 31.82-.001 8.669-8.669 8.608-23.208 0-31.818-6.175-6.177-31.474-21.558-42.427-10.607-10.949 10.949 4.432 36.249 10.607 42.426zm21.213-21.213c2.875 2.876 2.885 7.72 0 10.605-2.924 2.924-7.682 2.923-10.606.001-4.38-4.381-9.89-15.949-10.159-20.766 4.817.269 16.385 5.779 20.765 10.16zm32.684 111.213c6.176-6.177 21.557-31.477 10.607-42.428-10.951-10.948-36.25 4.434-42.426 10.607-8.652 8.649-8.696 23.126 0 31.82 8.773 8.772 23.046 8.773 31.819.001zm-21.212-21.214c4.379-4.38 15.948-9.89 20.765-10.158-.27 4.816-5.779 16.385-10.159 20.766v-.001c-2.924 2.926-7.682 2.924-10.606.001-2.887-2.886-2.886-7.722 0-10.608zm-379.773-63.529c-8.65 8.647-8.695 23.127 0 31.82 8.773 8.772 23.046 8.772 31.82 0v-.001c6.175-6.176 21.555-31.477 10.606-42.427-10.95-10.949-36.25 4.434-42.426 10.608zm21.213 21.214c-2.924 2.924-7.682 2.923-10.606 0-2.886-2.885-2.885-7.722 0-10.607 4.379-4.38 15.948-9.89 20.765-10.158-.27 4.815-5.779 16.384-10.159 20.765zm414.185-49.906c-1.967-3.646-6.517-5.009-10.162-3.039-3.645 1.967-5.006 6.517-3.039 10.162 19.788 36.674 24.725 79.046 13.903 119.311-7.118 26.484-20.489 50.21-38.85 69.561l-5.391-16.236c-1.859-5.599-6.37-9.855-12.066-11.386l-17.105-4.598c-.646-.174-1.186-.588-1.519-1.168l-11.088-19.286c-2.064-3.592-6.649-4.83-10.24-2.764-3.591 2.064-4.828 6.649-2.764 10.24l11.088 19.286c2.333 4.058 6.108 6.962 10.629 8.178l17.106 4.598c.813.219 1.458.826 1.724 1.626l7.613 22.928c-7.662 6.571-15.986 12.483-24.922 17.634-37.604 21.675-81.398 27.408-123.319 16.139-6.874-1.844-13.605-4.139-20.135-6.84 21.787-13.791 40.388-32.183 54.406-53.812.467-.542.845-1.142 1.135-1.779 17.289-27.382 27.311-59.788 27.311-94.495 0-63.096-33.098-118.601-82.838-150.085 18.664-7.767 38.475-11.928 58.473-12.388l1.767 17.357c.545 5.352 3.457 10.081 7.99 12.976l14.968 9.562c.734.469 1.176 1.301 1.153 2.171l-.297 11.359c-.108 4.141 3.161 7.585 7.301 7.693.067.002.133.003.2.003 4.051 0 7.387-3.23 7.494-7.304l.297-11.36c.159-6.097-2.936-11.923-8.074-15.204l-14.968-9.561c-.647-.414-1.063-1.09-1.141-1.854l-1.576-15.48c10.354.73 20.694 2.449 30.886 5.188 32.306 8.679 60.713 26.752 82.151 52.267 2.676 3.185 7.411 3.569 10.567.917 3.171-2.665 3.582-7.396.917-10.567-23.424-27.877-54.458-47.623-89.743-57.103-41.416-11.127-86.012-6.811-124.55 12.236-23.676-11.721-50.319-18.323-78.478-18.323-96.17 0-177.499 78.227-177.499 177.5 0 82.428 59.685 156.907 141.276 173.799 4.057.84 8.025-1.765 8.867-5.82s-1.765-8.026-5.821-8.867c-33.088-6.862-63.446-24.179-86.407-49.102l18.296-14.614c.481-.385 1.085-.58 1.699-.541l16.345.923c5.74.328 11.297-2.203 14.824-6.761l14.845-19.177c2.536-3.275 1.936-7.986-1.34-10.521s-7.986-1.936-10.521 1.34l-14.845 19.178c-.504.65-1.302 1.02-2.117.965l-16.345-.923c-4.314-.25-8.539 1.106-11.907 3.799l-18.579 14.838c-21.491-28.181-33.27-62.927-33.27-98.516 0-73.683 49.3-136.059 116.643-155.901l6.207 16.291c1.914 5.027 5.954 8.84 11.084 10.46l16.936 5.348c.831.262 1.473.951 1.677 1.799l2.661 11.047c.971 4.062 5.106 6.483 9.048 5.534 4.027-.97 6.505-5.021 5.535-9.048l-2.661-11.046c-1.428-5.93-5.927-10.754-11.744-12.591l-16.936-5.348c-.732-.23-1.31-.775-1.583-1.494l-5.539-14.539c10.092-1.969 20.512-3.012 31.171-3.012 89.603 0 162.5 72.897 162.5 162.5 0 27.911-7.076 54.2-19.524 77.171l-9.362-14.192c-3.248-4.924-8.709-7.863-14.608-7.863h-17.713c-.659 0-1.304-.268-1.77-.734l-15.714-15.747c-2.926-2.931-7.675-2.938-10.607-.011-2.932 2.926-2.937 7.674-.011 10.606l15.714 15.747c3.307 3.313 7.706 5.139 12.387 5.139h17.713c.843 0 1.623.42 2.087 1.123l13.249 20.084c-29.277 42.932-78.571 71.177-134.342 71.177-4.142 0-7.5 3.357-7.5 7.5s3.358 7.5 7.5 7.5c28.139 0 54.757-6.601 78.419-18.306 10.33 5.092 21.234 9.203 32.474 12.219 15.374 4.132 30.815 6.104 46.026 6.103 77.931-.01 150.835-54.732 171.454-131.449 11.823-43.981 6.429-90.265-15.186-130.327zm-197.539 99.102c6.176-6.177 21.556-31.477 10.606-42.428-10.951-10.95-36.25 4.432-42.427 10.607-8.772 8.772-8.772 23.047 0 31.82 8.773 8.774 23.047 8.773 31.821.001zm-21.214-21.214c4.38-4.38 15.949-9.89 20.765-10.158-.269 4.816-5.778 16.385-10.159 20.766-2.923 2.924-7.682 2.923-10.606 0-2.924-2.925-2.924-7.684 0-10.608z"/></g></svg>