<svg id="Capa_1" enable-background="new 0 0 511.986 511.986" height="512" viewBox="0 0 511.986 511.986" width="512" xmlns="http://www.w3.org/2000/svg"><g><path d="m430.172 248.486h-10.585c4.812-17.28-1.712-36.147-3.293-40.291-7.463-19.42-22.476-30.723-32.83-36.517 8.036-20.107.637-41.799-.99-46.089-4.579-12.035-12.443-22.303-23.378-30.522-4.563-3.424-8.922-5.946-12.638-7.776 2.742-12.619 4.957-29.566-3.127-48-9.133-20.803-26.489-32.062-39.441-37.844-4.828-2.154-10.45-1.89-15.042.708-4.598 2.601-7.601 7.092-8.241 12.329-2.222 18.356-8.328 32.877-18.146 43.16-14.652 15.331-34.242 18.265-54.983 21.372-24.266 3.635-49.357 7.393-69.002 30.549-4.698 5.545-18.994 22.419-17.875 45.954.415 8.806 3.005 17.569 7.554 25.748-7.24 3.845-13.985 8.591-20.092 14.602-9.956 9.793-15.887 20.775-17.15 31.747-.807 6.903.018 13.887 2.433 20.87h-11.532c-17.107 0-31.024 13.918-31.024 31.024 0 15.208 11.004 27.887 25.466 30.515l43.957 173.662c4.218 16.662 19.166 28.299 36.35 28.299h198.86c17.184 0 32.132-11.637 36.35-28.299l43.957-173.662c14.462-2.628 25.466-15.306 25.466-30.515 0-17.106-13.918-31.024-31.024-31.024zm-54.425-63.943c8.32 4.566 20.604 13.575 26.538 29.017.846 2.218 7.848 21.477 1.365 34.926h-266.445c20.428-16.685 49.514-18.034 73.408-19.957 64.949-5.226 137.782-11.092 165.134-43.986zm-269.933 44.801c.868-7.541 5.284-15.418 12.771-22.783 6.86-6.753 14.813-11.649 23.66-15.416.094-.044.191-.075.284-.123 15.099-6.374 32.797-9.487 52.152-12.889 17.445-3.066 35.484-6.237 53.93-12.188 3.942-1.272 6.106-5.499 4.834-9.441-1.272-3.941-5.497-6.106-9.44-4.834-17.458 5.633-34.978 8.712-51.921 11.69-17.615 3.096-34.687 6.103-50.141 11.8-3.114-5.266-5.974-12.219-6.357-20.35-.839-17.636 10.186-30.649 14.348-35.562 15.982-18.839 37.251-22.024 59.768-25.397 22.323-3.344 45.407-6.802 63.607-25.845 12.105-12.677 19.572-30.078 22.19-51.711.118-.973 1.125-1.664 2.278-1.15 10.538 4.704 24.612 13.758 31.819 30.173 7.125 16.249 3.952 31.553 1.231 43.05-16.454 21.71-35.336 38.588-56.154 50.154-3.621 2.012-4.925 6.578-2.914 10.199 2.013 3.621 6.578 4.924 10.199 2.914 21.525-11.959 41.07-29.015 58.167-50.746 2.931 1.462 6.358 3.467 9.963 6.173 8.631 6.487 14.811 14.515 18.364 23.854.321.848 7.789 20.938.394 36.812-15.983 34.307-95.523 40.707-159.463 45.852-29.321 2.359-69.207 4.289-93.006 34.906h-6.799c-3.214-6.558-4.484-12.98-3.764-19.142zm271.418 250.661c-2.531 9.998-11.5 16.98-21.809 16.98h-198.86c-10.31 0-19.278-6.982-21.809-16.98l-10.941-43.224h264.36zm27.658-109.267h-223.468c-4.142 0-7.5 3.357-7.5 7.5s3.358 7.5 7.5 7.5h219.671l-9.123 36.044h-271.954l-9.123-36.044h35.529c4.142 0 7.5-3.357 7.5-7.5s-3.358-7.5-7.5-7.5h-39.326l-15.239-60.204h328.271zm25.282-75.205h-348.358c-8.836 0-16.024-7.188-16.024-16.023 0-8.836 7.188-16.024 16.024-16.024h326.06c.004 0 .008.001.013.001.006 0 .011-.001.017-.001h22.268c8.836 0 16.024 7.188 16.024 16.024 0 8.835-7.189 16.023-16.024 16.023z"/></g></svg>